<svg width="80" height="80" viewBox="0 0 80 80" fill="none" xmlns="http://www.w3.org/2000/svg">
<g filter="url(#filter0_d_8628_4482)">
<path d="M5 29.8889C5 21.177 5 16.821 6.69545 13.4935C8.18682 10.5665 10.5665 8.18682 13.4935 6.69545C16.821 5 21.177 5 29.8889 5H50.1111C58.823 5 63.179 5 66.5065 6.69545C69.4335 8.18682 71.8132 10.5665 73.3045 13.4935C75 16.821 75 21.177 75 29.8889V50.1111C75 58.823 75 63.179 73.3045 66.5065C71.8132 69.4335 69.4335 71.8132 66.5065 73.3045C63.179 75 58.823 75 50.1111 75H29.8889C21.177 75 16.821 75 13.4935 73.3045C10.5665 71.8132 8.18682 69.4335 6.69545 66.5065C5 63.179 5 58.823 5 50.1111V29.8889Z" fill="white"/>
<path d="M40.0051 31.1272L31.3529 15.8579C31.6402 15.5654 31.9707 15.3736 32.3012 15.2446C29.7497 16.0844 28.579 18.9495 28.579 18.9495L12.7727 46.8368C12.5503 47.7111 12.4886 48.5006 12.5164 49.1956H29.7683L40.0051 31.1272Z" fill="#34A853"/>
<path d="M40.0048 31.1272L50.2417 49.1956H67.4936C67.5214 48.5006 67.4596 47.7111 67.2372 46.8368L51.4309 18.9495C51.4309 18.9495 50.2571 16.0844 47.7087 15.2446C48.0362 15.3736 48.3698 15.5654 48.657 15.8579L40.0048 31.1272Z" fill="#FBBC05"/>
<path d="M40.0049 31.1281L48.6571 15.8588C48.3698 15.5663 48.0362 15.3744 47.7088 15.2455C47.3319 15.1228 46.9273 15.0411 46.4886 15.019H46.0315H33.9783H33.5211C33.0856 15.0379 32.6778 15.1197 32.301 15.2455C31.9735 15.3744 31.6399 15.5663 31.3527 15.8588L40.0049 31.1281Z" fill="#188038"/>
<path d="M29.7711 49.1958L21.2177 64.2921C21.2177 64.2921 20.9335 64.1537 20.5474 63.8675C21.7614 64.8016 22.9414 64.9998 22.9414 64.9998H56.534C58.3874 64.9998 58.7735 64.2921 58.7735 64.2921C58.7797 64.289 58.7827 64.2858 58.7889 64.2827L50.2417 49.1958H29.7711Z" fill="#4285F4"/>
<path d="M29.7718 49.1958H12.5198C12.6063 51.2464 13.496 52.4447 13.496 52.4447L14.1446 53.5706C14.191 53.6366 14.2188 53.6744 14.2188 53.6744L15.6304 56.1527L18.7997 61.6691C18.8924 61.8924 19.0005 62.0969 19.1148 62.2919C19.158 62.3579 19.1982 62.4302 19.2445 62.4931C19.2569 62.512 19.2692 62.5309 19.2816 62.5498C19.6739 63.1033 20.1125 63.531 20.5512 63.8675C20.9373 64.1569 21.2215 64.2921 21.2215 64.2921L29.7718 49.1958Z" fill="#1967D2"/>
<path d="M50.2417 49.1958H67.4936C67.4071 51.2464 66.5175 52.4447 66.5175 52.4447L65.8688 53.5706C65.8225 53.6366 65.7947 53.6744 65.7947 53.6744L64.383 56.1527L61.2137 61.6691C61.121 61.8924 61.0129 62.0969 60.8987 62.2919C60.8554 62.3579 60.8152 62.4302 60.7689 62.4931C60.7566 62.512 60.7442 62.5309 60.7318 62.5498C60.3395 63.1033 59.9009 63.531 59.4623 63.8675C59.0762 64.1569 58.792 64.2921 58.792 64.2921L50.2417 49.1958Z" fill="#EA4335"/>
</g>
<defs>
<filter id="filter0_d_8628_4482" x="-2" y="-1" width="84" height="84" filterUnits="userSpaceOnUse" color-interpolation-filters="sRGB">
<feFlood flood-opacity="0" result="BackgroundImageFix"/>
<feColorMatrix in="SourceAlpha" type="matrix" values="0 0 0 0 0 0 0 0 0 0 0 0 0 0 0 0 0 0 127 0" result="hardAlpha"/>
<feOffset dy="1"/>
<feGaussianBlur stdDeviation="1"/>
<feColorMatrix type="matrix" values="0 0 0 0 0.0392157 0 0 0 0 0.0496732 0 0 0 0 0.0705882 0 0 0 0.05 0"/>
<feBlend mode="normal" in2="BackgroundImageFix" result="effect1_dropShadow_8628_4482"/>
<feBlend mode="normal" in="SourceGraphic" in2="effect1_dropShadow_8628_4482" result="shape"/>
</filter>
</defs>
</svg>
