<svg width="80" height="80" viewBox="0 0 80 80" fill="none" xmlns="http://www.w3.org/2000/svg">
<path fill-rule="evenodd" clip-rule="evenodd" d="M14.29 73.0445L5.69159 62.3329C3.62282 59.7557 2.5 56.5865 2.5 53.3247V14.5375C2.5 9.65161 6.40896 5.59742 11.4518 5.25313L51.3303 2.53046C54.2275 2.33266 57.107 3.10273 59.4869 4.71176L73.4981 14.1848C76.0061 15.8805 77.5 18.6525 77.5 21.6106V65.7079C77.5 70.4894 73.6564 74.4482 68.7191 74.7522L24.4583 77.4767C20.5183 77.7192 16.71 76.0592 14.29 73.0445Z" fill="white"/>
<path d="M28.1204 33.9465V33.4387C28.1204 32.1515 29.1513 31.0839 30.48 30.9952L40.1584 30.3491L53.5428 50.0586V32.7601L50.0977 32.3009V32.0597C50.0977 30.7573 51.1522 29.6827 52.4978 29.6138L61.3041 29.1627V30.4299C61.3041 31.0249 60.8617 31.5337 60.2554 31.6363L58.1362 31.9947V60.009L55.4766 60.9236C53.2547 61.6877 50.7811 60.8698 49.5091 58.9504L36.5153 39.3427V58.0572L40.5148 58.8226L40.4591 59.1936C40.2845 60.3556 39.2813 61.2344 38.0676 61.2884L28.1204 61.7312C27.9889 60.4816 28.9254 59.3637 30.2174 59.2279L31.5259 59.0905V34.1379L28.1204 33.9465Z" fill="black"/>
<path fill-rule="evenodd" clip-rule="evenodd" d="M51.6874 7.41671L11.8088 10.1394C9.42013 10.3025 7.56851 12.2229 7.56851 14.5372V53.3244C7.56851 55.499 8.31706 57.6118 9.69624 59.3299L18.2946 70.0415C19.6848 71.7734 21.8726 72.727 24.136 72.5877L68.3967 69.8631C70.6653 69.7235 72.4312 67.9046 72.4312 65.7077V21.6104C72.4312 20.2512 71.7449 18.9776 70.5925 18.1985L56.5813 8.72549C55.1534 7.76007 53.4257 7.29803 51.6874 7.41671ZM13.7863 15.1422C13.2317 14.7316 13.4956 13.8761 14.1924 13.8261L51.9556 11.1175C53.1588 11.0312 54.3544 11.3626 55.3275 12.052L62.9044 17.4201C63.192 17.6239 63.0571 18.0638 62.701 18.0832L22.7098 20.2582C21.4996 20.324 20.305 19.9684 19.3427 19.256L13.7863 15.1422ZM20.8341 27.0765C20.8341 25.7773 21.8837 24.7042 23.2258 24.6311L65.5078 22.3284C66.8158 22.2572 67.917 23.2631 67.917 24.5293V62.7129C67.917 64.0097 66.8711 65.0818 65.5316 65.158L23.5174 67.5486C22.0616 67.6314 20.8341 66.5128 20.8341 65.1035V27.0765Z" fill="black"/>
</svg>
