<svg width="127" height="33" viewBox="0 0 127 33" fill="none" xmlns="http://www.w3.org/2000/svg">
<path d="M16.0369 23.4758L9.32855 16.3937L16.0369 9.3117L22.7451 16.3937L16.0369 23.4758ZM18.198 31.81C17.909 32.1151 17.5743 32.3486 17.1941 32.5106C16.8139 32.6722 16.4281 32.753 16.0369 32.753C15.6456 32.753 15.2599 32.6722 14.8796 32.5106C14.4993 32.3486 14.1647 32.1151 13.8757 31.81L1.38505 18.6238C1.10704 18.33 0.891358 17.9825 0.738002 17.581C0.584837 17.1796 0.508301 16.7782 0.508301 16.3767C0.508301 15.975 0.584837 15.5734 0.738002 15.172C0.891358 14.7706 1.10704 14.4232 1.38505 14.1297L13.8499 0.970299C14.1561 0.646999 14.495 0.4044 14.8665 0.2425C15.2382 0.0808003 15.6283 0 16.0369 0C16.4453 0 16.8355 0.0808003 17.2072 0.2425C17.5787 0.4044 17.9176 0.646999 18.2238 0.970299L30.6886 14.1297C30.9666 14.4232 31.1823 14.7706 31.3356 15.172C31.4888 15.5734 31.5653 15.975 31.5653 16.3767C31.5653 16.7782 31.4888 17.1796 31.3356 17.581C31.1823 17.9825 30.9666 18.33 30.6886 18.6238L18.198 31.81ZM16.3139 28.968L27.9635 16.6689C28.0395 16.5886 28.0775 16.4913 28.0775 16.3767C28.0775 16.2619 28.0395 16.1644 27.9635 16.0842L16.3139 3.7851C16.238 3.7048 16.1456 3.6676 16.0369 3.6732C15.928 3.6792 15.8357 3.7223 15.7597 3.8025L4.09363 16.1186C4.01757 16.1988 3.98233 16.2906 3.98764 16.3937C3.99332 16.4969 4.03415 16.5886 4.11011 16.6689L15.7597 28.968C15.8357 29.0482 15.928 29.0883 16.0369 29.0883C16.1456 29.0883 16.238 29.0482 16.3139 28.968Z" fill="#7F56D9"/>
<path d="M42.1133 24H39.8672C39.8021 24 39.7695 23.9674 39.7695 23.9023L39.8086 10.1621C39.8086 10.11 39.8346 10.084 39.8867 10.084H46.293C46.3581 10.084 46.3906 10.11 46.3906 10.1621V12.418C46.3906 12.4701 46.3646 12.4961 46.3125 12.4961H42.2109V15.6016H46.3125C46.3646 15.6016 46.3906 15.6341 46.3906 15.6992L46.4102 17.9648C46.4102 18.0169 46.3776 18.043 46.3125 18.043H42.2109V23.9023C42.2109 23.9674 42.1784 24 42.1133 24ZM54.7305 24H48.2656C48.2135 24 48.1875 23.9674 48.1875 23.9023L48.207 10.1816C48.207 10.1165 48.2396 10.084 48.3047 10.084H50.5312C50.5964 10.084 50.6289 10.1165 50.6289 10.1816L50.6094 21.5391H54.7305C54.7956 21.5391 54.8281 21.5716 54.8281 21.6367V23.9023C54.8281 23.9674 54.7956 24 54.7305 24ZM59.8379 24.1953C59.1283 24.1953 58.474 24.013 57.875 23.6484C57.2826 23.2839 56.804 22.7988 56.4395 22.1934C56.0814 21.5814 55.9023 20.9108 55.9023 20.1816L55.9219 13.8438C55.9219 13.1016 56.1009 12.4342 56.459 11.8418C56.8105 11.2428 57.2858 10.7643 57.8848 10.4062C58.4837 10.0417 59.1348 9.85938 59.8379 9.85938C60.5671 9.85938 61.2214 10.0384 61.8008 10.3965C62.3867 10.7546 62.8555 11.2363 63.207 11.8418C63.5651 12.4408 63.7441 13.1081 63.7441 13.8438L63.7637 20.1816C63.7637 20.9108 63.5879 21.5781 63.2363 22.1836C62.8783 22.7956 62.403 23.2839 61.8105 23.6484C61.2181 24.013 60.5605 24.1953 59.8379 24.1953ZM59.8379 21.7832C60.2415 21.7832 60.5931 21.6204 60.8926 21.2949C61.1921 20.9629 61.3418 20.5918 61.3418 20.1816L61.3223 13.8438C61.3223 13.401 61.1823 13.0267 60.9023 12.7207C60.6224 12.4147 60.2676 12.2617 59.8379 12.2617C59.4277 12.2617 59.0762 12.4115 58.7832 12.7109C58.4902 13.0104 58.3438 13.388 58.3438 13.8438V20.1816C58.3438 20.6178 58.4902 20.9954 58.7832 21.3145C59.0762 21.627 59.4277 21.7832 59.8379 21.7832ZM69.5449 24H67.123C67.0645 24 67.0319 23.9674 67.0254 23.9023L64.6621 10.1621C64.6491 10.11 64.6686 10.084 64.7207 10.084H66.9668C67.0189 10.084 67.0514 10.11 67.0645 10.1621L68.3438 19.1953L69.6621 10.1621C69.6751 10.11 69.7142 10.084 69.7793 10.084H71.5859C71.638 10.084 71.6706 10.11 71.6836 10.1621L72.9824 19.1953L74.2812 10.1621C74.2943 10.11 74.3268 10.084 74.3789 10.084H76.6055C76.6706 10.084 76.6966 10.11 76.6836 10.1621L74.3008 23.9023C74.2943 23.9284 74.2747 23.9512 74.2422 23.9707L74.2031 24H71.7812C71.7422 24 71.7096 23.9674 71.6836 23.9023L70.6582 16.7246L69.6426 23.9023C69.6361 23.9674 69.6035 24 69.5449 24ZM84.3984 24H77.9336C77.8815 24 77.8555 23.9674 77.8555 23.9023L77.875 10.1816C77.875 10.1165 77.9076 10.084 77.9727 10.084H80.1992C80.2643 10.084 80.2969 10.1165 80.2969 10.1816L80.2773 21.5391H84.3984C84.4635 21.5391 84.4961 21.5716 84.4961 21.6367V23.9023C84.4961 23.9674 84.4635 24 84.3984 24ZM89.9746 24H87.6797C87.6341 24 87.6113 23.974 87.6113 23.9219L87.6309 18.2383L84.9551 10.1621C84.9421 10.11 84.9616 10.084 85.0137 10.084H87.2402C87.3053 10.084 87.3444 10.11 87.3574 10.1621L88.832 15.543L90.3359 10.1621C90.349 10.11 90.3815 10.084 90.4336 10.084H92.6797C92.7318 10.084 92.7513 10.11 92.7383 10.1621L90.0332 18.1602L90.0527 23.9219C90.0527 23.974 90.0267 24 89.9746 24ZM98.0996 24H95.8438C95.7852 24 95.7559 23.9674 95.7559 23.9023V12.4961H93.1582C93.0931 12.4961 93.0605 12.4635 93.0605 12.3984L93.0801 10.1621C93.0801 10.11 93.1061 10.084 93.1582 10.084H100.756C100.827 10.084 100.863 10.11 100.863 10.1621V12.3984C100.863 12.4635 100.837 12.4961 100.785 12.4961H98.1582L98.1777 23.9023C98.1777 23.9674 98.1517 24 98.0996 24ZM104.203 24H101.938C101.872 24 101.84 23.9674 101.84 23.9023L101.859 10.1621C101.859 10.11 101.885 10.084 101.938 10.084H104.184C104.236 10.084 104.262 10.11 104.262 10.1621L104.281 23.9023C104.281 23.9674 104.255 24 104.203 24ZM109.721 24.1953C108.998 24.1953 108.337 24.013 107.738 23.6484C107.146 23.2839 106.674 22.7956 106.322 22.1836C105.977 21.5651 105.805 20.8783 105.805 20.123L105.824 13.8828C105.824 13.1406 105.993 12.4701 106.332 11.8711C106.671 11.2656 107.136 10.7806 107.729 10.416C108.327 10.0449 108.992 9.85938 109.721 9.85938C110.463 9.85938 111.124 10.0384 111.703 10.3965C112.289 10.7546 112.755 11.2396 113.1 11.8516C113.451 12.457 113.627 13.1341 113.627 13.8828V14.8008C113.627 14.8529 113.601 14.8789 113.549 14.8789H111.303C111.251 14.8789 111.225 14.8529 111.225 14.8008V13.8828C111.225 13.4401 111.081 13.0592 110.795 12.7402C110.508 12.4212 110.15 12.2617 109.721 12.2617C109.245 12.2617 108.881 12.4245 108.627 12.75C108.373 13.0755 108.246 13.4531 108.246 13.8828V20.123C108.246 20.6113 108.389 21.0117 108.676 21.3242C108.962 21.6302 109.311 21.7832 109.721 21.7832C110.15 21.7832 110.508 21.6139 110.795 21.2754C111.081 20.9303 111.225 20.5462 111.225 20.123V19.1953C111.225 19.1432 111.251 19.1172 111.303 19.1172H113.568C113.62 19.1172 113.646 19.1432 113.646 19.1953V20.123C113.646 20.8717 113.471 21.5553 113.119 22.1738C112.761 22.7858 112.289 23.2773 111.703 23.6484C111.117 24.013 110.456 24.1953 109.721 24.1953ZM118.5 24.1953C117.79 24.1953 117.136 24.013 116.537 23.6484C115.945 23.2839 115.469 22.7988 115.111 22.1934C114.76 21.5814 114.584 20.9108 114.584 20.1816V19.2637C114.584 19.1921 114.617 19.1562 114.682 19.1562H116.928C116.98 19.1562 117.006 19.1921 117.006 19.2637V20.1816C117.006 20.6178 117.152 20.9954 117.445 21.3145C117.738 21.627 118.09 21.7832 118.5 21.7832C118.917 21.7832 119.271 21.6237 119.564 21.3047C119.857 20.9792 120.004 20.6048 120.004 20.1816C120.004 19.6934 119.685 19.2669 119.047 18.9023C118.943 18.8372 118.806 18.7591 118.637 18.668C118.474 18.5703 118.279 18.4596 118.051 18.3359C117.823 18.2122 117.602 18.0918 117.387 17.9746C117.172 17.8509 116.964 17.7337 116.762 17.623C116.033 17.1934 115.489 16.6562 115.131 16.0117C114.779 15.3607 114.604 14.6315 114.604 13.8242C114.604 13.082 114.786 12.4115 115.15 11.8125C115.515 11.2201 115.99 10.7513 116.576 10.4062C117.169 10.0547 117.81 9.87891 118.5 9.87891C119.21 9.87891 119.861 10.0547 120.453 10.4062C121.046 10.7643 121.518 11.2396 121.869 11.832C122.227 12.4245 122.406 13.0885 122.406 13.8242V15.4648C122.406 15.5169 122.38 15.543 122.328 15.543H120.082C120.03 15.543 120.004 15.5169 120.004 15.4648L119.984 13.8242C119.984 13.3555 119.838 12.9746 119.545 12.6816C119.252 12.3887 118.904 12.2422 118.5 12.2422C118.09 12.2422 117.738 12.3984 117.445 12.7109C117.152 13.0234 117.006 13.3945 117.006 13.8242C117.006 14.2604 117.097 14.625 117.279 14.918C117.468 15.2109 117.81 15.4909 118.305 15.7578C118.357 15.7839 118.477 15.849 118.666 15.9531C118.855 16.0573 119.063 16.1745 119.291 16.3047C119.525 16.4284 119.737 16.5423 119.926 16.6465C120.115 16.7441 120.229 16.8027 120.268 16.8223C120.932 17.1934 121.456 17.6491 121.84 18.1895C122.23 18.7298 122.426 19.3939 122.426 20.1816C122.426 20.9434 122.25 21.627 121.898 22.2324C121.54 22.8379 121.065 23.3164 120.473 23.668C119.88 24.0195 119.223 24.1953 118.5 24.1953Z" fill="white"/>
</svg>
