<svg width="116" height="33" viewBox="0 0 116 33" fill="none" xmlns="http://www.w3.org/2000/svg">
<path d="M37.4523 21.9207H36.0123V10.4967H42.3963V11.7607H37.4523V15.8087H42.0923V17.0727H37.4523V21.9207ZM45.5252 21.9207H44.1172V9.76071H45.5252V21.9207ZM55.6982 17.6167C55.6982 18.3314 55.6022 18.966 55.4102 19.5207C55.2289 20.0647 54.9622 20.5287 54.6102 20.9127C54.2689 21.2967 53.8475 21.59 53.3462 21.7927C52.8555 21.9847 52.3062 22.0807 51.6982 22.0807C51.1329 22.0807 50.6102 21.9847 50.1302 21.7927C49.6502 21.59 49.2342 21.2967 48.8822 20.9127C48.5302 20.5287 48.2529 20.0647 48.0502 19.5207C47.8582 18.966 47.7622 18.3314 47.7622 17.6167C47.7622 16.6674 47.9222 15.8674 48.2422 15.2167C48.5622 14.5554 49.0209 14.054 49.6182 13.7127C50.2155 13.3607 50.9249 13.1847 51.7462 13.1847C52.5249 13.1847 53.2075 13.3607 53.7942 13.7127C54.3915 14.054 54.8555 14.5554 55.1862 15.2167C55.5275 15.8674 55.6982 16.6674 55.6982 17.6167ZM49.2182 17.6167C49.2182 18.2887 49.3035 18.8754 49.4742 19.3767C49.6555 19.8674 49.9329 20.246 50.3062 20.5127C50.6795 20.7794 51.1542 20.9127 51.7302 20.9127C52.3062 20.9127 52.7809 20.7794 53.1542 20.5127C53.5275 20.246 53.7995 19.8674 53.9702 19.3767C54.1515 18.8754 54.2422 18.2887 54.2422 17.6167C54.2422 16.934 54.1515 16.3527 53.9702 15.8727C53.7889 15.3927 53.5115 15.0247 53.1382 14.7687C52.7755 14.502 52.3009 14.3687 51.7142 14.3687C50.8395 14.3687 50.2049 14.6567 49.8102 15.2327C49.4155 15.8087 49.2182 16.6034 49.2182 17.6167ZM63.1532 17.0727C63.0892 16.8487 63.0252 16.63 62.9612 16.4167C62.8972 16.1927 62.8385 15.9847 62.7852 15.7927C62.7425 15.59 62.6999 15.4034 62.6572 15.2327C62.6145 15.062 62.5825 14.918 62.5612 14.8007H62.4972C62.4759 14.918 62.4439 15.062 62.4012 15.2327C62.3692 15.4034 62.3265 15.59 62.2732 15.7927C62.2305 15.9954 62.1772 16.2087 62.1132 16.4327C62.0599 16.646 61.9959 16.8647 61.9212 17.0887L60.3852 21.9047H58.7852L56.4332 13.3287H57.8892L59.0732 17.9047C59.1585 18.214 59.2385 18.5287 59.3132 18.8487C59.3879 19.158 59.4519 19.4567 59.5052 19.7447C59.5692 20.022 59.6119 20.262 59.6332 20.4647H59.6972C59.7292 20.3367 59.7665 20.1767 59.8092 19.9847C59.8519 19.7927 59.8945 19.59 59.9372 19.3767C59.9905 19.1634 60.0439 18.95 60.0972 18.7367C60.1612 18.5234 60.2199 18.3314 60.2732 18.1607L61.7932 13.3287H63.3292L64.8012 18.1607C64.8759 18.406 64.9505 18.6674 65.0252 18.9447C65.1105 19.222 65.1852 19.494 65.2492 19.7607C65.3132 20.0167 65.3559 20.246 65.3772 20.4487H65.4412C65.4625 20.2674 65.4999 20.0434 65.5532 19.7767C65.6172 19.4994 65.6865 19.2007 65.7612 18.8807C65.8465 18.55 65.9319 18.2247 66.0172 17.9047L67.2172 13.3287H68.6572L66.2732 21.9047H64.6252L63.1532 17.0727ZM71.6033 21.9207H70.1953V9.76071H71.6033V21.9207ZM72.9763 13.3447H74.4803L76.3363 18.2247C76.443 18.5127 76.539 18.79 76.6243 19.0567C76.7203 19.3234 76.8057 19.5847 76.8803 19.8407C76.955 20.086 77.0137 20.326 77.0563 20.5607H77.1203C77.1843 20.294 77.2857 19.9474 77.4243 19.5207C77.563 19.0834 77.707 18.646 77.8563 18.2087L79.6003 13.3447H81.1203L77.4243 23.1047C77.2217 23.638 76.9817 24.102 76.7043 24.4967C76.4377 24.902 76.107 25.2114 75.7123 25.4247C75.3283 25.6487 74.859 25.7607 74.3043 25.7607C74.0483 25.7607 73.8243 25.7447 73.6323 25.7127C73.4403 25.6914 73.275 25.6647 73.1363 25.6327V24.5127C73.2537 24.534 73.3923 24.5554 73.5523 24.5767C73.723 24.598 73.899 24.6087 74.0803 24.6087C74.411 24.6087 74.6937 24.5447 74.9283 24.4167C75.1737 24.2994 75.3817 24.1234 75.5523 23.8887C75.723 23.6647 75.867 23.398 75.9843 23.0887L76.4323 21.9527L72.9763 13.3447ZM85.3406 20.9287C85.5539 20.9287 85.7726 20.9127 85.9966 20.8807C86.2206 20.838 86.4019 20.7954 86.5406 20.7527V21.8247C86.3912 21.8994 86.1779 21.958 85.9006 22.0007C85.6232 22.054 85.3566 22.0807 85.1006 22.0807C84.6526 22.0807 84.2366 22.006 83.8526 21.8567C83.4792 21.6967 83.1752 21.4247 82.9406 21.0407C82.7059 20.6567 82.5886 20.118 82.5886 19.4247V14.4327H81.3726V13.7607L82.6046 13.2007L83.1646 11.3767H83.9966V13.3447H86.4766V14.4327H83.9966V19.3927C83.9966 19.9154 84.1192 20.3047 84.3646 20.5607C84.6206 20.806 84.9459 20.9287 85.3406 20.9287ZM89.6658 13.3447V21.9207H88.2578V13.3447H89.6658ZM88.9778 10.1287C89.1912 10.1287 89.3778 10.2034 89.5378 10.3527C89.7085 10.4914 89.7938 10.7154 89.7938 11.0247C89.7938 11.3234 89.7085 11.5474 89.5378 11.6967C89.3778 11.846 89.1912 11.9207 88.9778 11.9207C88.7432 11.9207 88.5458 11.846 88.3858 11.6967C88.2258 11.5474 88.1458 11.3234 88.1458 11.0247C88.1458 10.7154 88.2258 10.4914 88.3858 10.3527C88.5458 10.2034 88.7432 10.1287 88.9778 10.1287ZM95.8228 22.0807C95.0655 22.0807 94.3882 21.926 93.7908 21.6167C93.2042 21.3074 92.7402 20.8274 92.3988 20.1767C92.0682 19.526 91.9028 18.694 91.9028 17.6807C91.9028 16.6247 92.0788 15.766 92.4308 15.1047C92.7828 14.4434 93.2575 13.958 93.8548 13.6487C94.4628 13.3394 95.1508 13.1847 95.9188 13.1847C96.3562 13.1847 96.7775 13.2327 97.1828 13.3287C97.5882 13.414 97.9188 13.5207 98.1748 13.6487L97.7428 14.8167C97.4868 14.7207 97.1882 14.63 96.8468 14.5447C96.5055 14.4594 96.1855 14.4167 95.8868 14.4167C95.3108 14.4167 94.8362 14.5394 94.4628 14.7847C94.0895 15.03 93.8122 15.3927 93.6308 15.8727C93.4495 16.3527 93.3588 16.95 93.3588 17.6647C93.3588 18.3474 93.4495 18.9287 93.6308 19.4087C93.8122 19.8887 94.0842 20.2514 94.4468 20.4967C94.8095 20.742 95.2628 20.8647 95.8068 20.8647C96.2762 20.8647 96.6868 20.8167 97.0388 20.7207C97.4015 20.6247 97.7322 20.5074 98.0308 20.3687V21.6167C97.7428 21.766 97.4228 21.878 97.0708 21.9527C96.7295 22.038 96.3135 22.0807 95.8228 22.0807ZM105.654 19.5527C105.654 20.1074 105.516 20.5714 105.238 20.9447C104.961 21.318 104.566 21.6007 104.054 21.7927C103.542 21.9847 102.934 22.0807 102.23 22.0807C101.633 22.0807 101.116 22.0327 100.678 21.9367C100.252 21.8407 99.873 21.7074 99.5423 21.5367V20.2567C99.8837 20.4274 100.294 20.5874 100.774 20.7367C101.265 20.8754 101.761 20.9447 102.262 20.9447C102.977 20.9447 103.494 20.8327 103.814 20.6087C104.134 20.374 104.294 20.0647 104.294 19.6807C104.294 19.4674 104.236 19.2754 104.118 19.1047C104.001 18.934 103.788 18.7634 103.478 18.5927C103.18 18.422 102.748 18.23 102.182 18.0167C101.628 17.8034 101.153 17.59 100.758 17.3767C100.364 17.1634 100.06 16.9074 99.8463 16.6087C99.633 16.31 99.5263 15.926 99.5263 15.4567C99.5263 14.7314 99.8197 14.1714 100.406 13.7767C101.004 13.382 101.782 13.1847 102.742 13.1847C103.265 13.1847 103.75 13.238 104.198 13.3447C104.657 13.4407 105.084 13.5794 105.478 13.7607L104.998 14.8807C104.764 14.774 104.513 14.6834 104.246 14.6087C103.99 14.5234 103.729 14.4594 103.462 14.4167C103.196 14.3634 102.924 14.3367 102.646 14.3367C102.07 14.3367 101.628 14.4327 101.318 14.6247C101.02 14.806 100.87 15.0567 100.87 15.3767C100.87 15.6114 100.94 15.814 101.078 15.9847C101.217 16.1447 101.446 16.3047 101.766 16.4647C102.097 16.614 102.534 16.7954 103.078 17.0087C103.622 17.2114 104.086 17.4194 104.47 17.6327C104.854 17.846 105.148 18.1074 105.35 18.4167C105.553 18.7154 105.654 19.094 105.654 19.5527Z" fill="#7F56D9"/>
<path d="M16.9334 23.4758L9.85129 16.3937L16.9334 9.31168L24.0154 16.3937L16.9334 23.4758ZM19.2149 31.81C18.9098 32.1151 18.5565 32.3486 18.1551 32.5106C17.7537 32.6722 17.3464 32.753 16.9334 32.753C16.5203 32.753 16.1131 32.6722 15.7116 32.5106C15.3102 32.3486 14.9569 32.1151 14.6518 31.81L1.46519 18.6238C1.17172 18.33 0.94402 17.9825 0.782078 17.581C0.620434 17.1796 0.539612 16.7782 0.539612 16.3767C0.539612 15.975 0.620434 15.5734 0.782078 15.172C0.94402 14.7706 1.17172 14.4232 1.46519 14.1297L14.6246 0.970312C14.9478 0.647024 15.3056 0.40441 15.6978 0.242468C16.0902 0.080824 16.5021 0 16.9334 0C17.3646 0 17.7765 0.080824 18.1689 0.242468C18.5611 0.40441 18.9189 0.647024 19.2422 0.970312L32.4015 14.1297C32.695 14.4232 32.9227 14.7706 33.0846 15.172C33.2463 15.5734 33.3271 15.975 33.3271 16.3767C33.3271 16.7782 33.2463 17.1796 33.0846 17.581C32.9227 17.9825 32.695 18.33 32.4015 18.6238L19.2149 31.81ZM17.2259 28.968L29.5246 16.6689C29.6048 16.5886 29.6449 16.4913 29.6449 16.3767C29.6449 16.2619 29.6048 16.1644 29.5246 16.0842L17.2259 3.78507C17.1457 3.70484 17.0482 3.66756 16.9334 3.67323C16.8185 3.67919 16.721 3.72229 16.6408 3.80251L4.32468 16.1186C4.24445 16.1988 4.20717 16.2906 4.21284 16.3937C4.2188 16.4969 4.2619 16.5886 4.34212 16.6689L16.6408 28.968C16.721 29.0482 16.8185 29.0883 16.9334 29.0883C17.0482 29.0883 17.1457 29.0482 17.2259 28.968Z" fill="#7F56D9"/>
</svg>
